<mxfile host="app.diagrams.net" modified="2023-09-27T20:11:49.672Z" agent="Mozilla/5.0 (Macintosh; Intel Mac OS X 10_15_7) AppleWebKit/537.36 (KHTML, like Gecko) Chrome/117.0.0.0 Safari/537.36" etag="enDdjAusJZDGJ0oV-rPh" version="21.8.2" type="device">
  <diagram name="Page-1" id="dKdu6N1zIVfzQxfXle9q">
    <mxGraphModel dx="2156" dy="836" grid="1" gridSize="10" guides="1" tooltips="1" connect="1" arrows="1" fold="1" page="1" pageScale="1" pageWidth="850" pageHeight="1100" math="0" shadow="0">
      <root>
        <mxCell id="0" />
        <mxCell id="1" parent="0" />
        <mxCell id="65VxoNCgQf6FpiBaKDHk-1" value="" style="rounded=0;whiteSpace=wrap;html=1;dashed=1;movable=0;resizable=0;rotatable=0;deletable=0;editable=0;locked=1;connectable=0;dashPattern=1 4;" parent="1" vertex="1">
          <mxGeometry x="40" y="20" width="720" height="460" as="geometry" />
        </mxCell>
        <mxCell id="65VxoNCgQf6FpiBaKDHk-8" style="edgeStyle=orthogonalEdgeStyle;rounded=0;orthogonalLoop=1;jettySize=auto;html=1;exitX=0;exitY=0.5;exitDx=0;exitDy=0;entryX=0.5;entryY=0;entryDx=0;entryDy=0;startArrow=block;startFill=1;endArrow=block;endFill=1;strokeWidth=1;jumpStyle=gap;" parent="1" source="65VxoNCgQf6FpiBaKDHk-2" target="65VxoNCgQf6FpiBaKDHk-3" edge="1">
          <mxGeometry relative="1" as="geometry" />
        </mxCell>
        <mxCell id="65VxoNCgQf6FpiBaKDHk-9" style="edgeStyle=orthogonalEdgeStyle;shape=connector;rounded=0;orthogonalLoop=1;jettySize=auto;html=1;exitX=1;exitY=0.75;exitDx=0;exitDy=0;entryX=0;entryY=0.5;entryDx=0;entryDy=0;labelBackgroundColor=default;strokeColor=default;strokeWidth=1;fontFamily=Helvetica;fontSize=11;fontColor=default;startArrow=block;startFill=1;endArrow=block;endFill=1;" parent="1" source="65VxoNCgQf6FpiBaKDHk-2" target="65VxoNCgQf6FpiBaKDHk-5" edge="1">
          <mxGeometry relative="1" as="geometry" />
        </mxCell>
        <mxCell id="65VxoNCgQf6FpiBaKDHk-10" style="edgeStyle=orthogonalEdgeStyle;shape=connector;rounded=0;orthogonalLoop=1;jettySize=auto;html=1;exitX=1;exitY=0.5;exitDx=0;exitDy=0;entryX=0;entryY=0.5;entryDx=0;entryDy=0;labelBackgroundColor=default;strokeColor=default;strokeWidth=1;fontFamily=Helvetica;fontSize=11;fontColor=default;startArrow=block;startFill=1;endArrow=block;endFill=1;" parent="1" source="65VxoNCgQf6FpiBaKDHk-2" target="65VxoNCgQf6FpiBaKDHk-6" edge="1">
          <mxGeometry relative="1" as="geometry" />
        </mxCell>
        <mxCell id="65VxoNCgQf6FpiBaKDHk-12" style="edgeStyle=orthogonalEdgeStyle;shape=connector;rounded=0;orthogonalLoop=1;jettySize=auto;html=1;exitX=1;exitY=0.25;exitDx=0;exitDy=0;entryX=0;entryY=0.5;entryDx=0;entryDy=0;labelBackgroundColor=default;strokeColor=default;strokeWidth=1;fontFamily=Helvetica;fontSize=11;fontColor=default;startArrow=block;startFill=1;endArrow=block;endFill=1;" parent="1" source="65VxoNCgQf6FpiBaKDHk-2" target="65VxoNCgQf6FpiBaKDHk-7" edge="1">
          <mxGeometry relative="1" as="geometry" />
        </mxCell>
        <mxCell id="65VxoNCgQf6FpiBaKDHk-20" style="edgeStyle=orthogonalEdgeStyle;shape=connector;rounded=0;orthogonalLoop=1;jettySize=auto;html=1;exitX=0.5;exitY=0;exitDx=0;exitDy=0;entryX=0;entryY=0.5;entryDx=0;entryDy=0;labelBackgroundColor=default;strokeColor=default;strokeWidth=1;fontFamily=Helvetica;fontSize=11;fontColor=default;startArrow=block;startFill=1;endArrow=block;endFill=1;" parent="1" source="65VxoNCgQf6FpiBaKDHk-2" target="65VxoNCgQf6FpiBaKDHk-17" edge="1">
          <mxGeometry relative="1" as="geometry" />
        </mxCell>
        <mxCell id="65VxoNCgQf6FpiBaKDHk-21" style="edgeStyle=orthogonalEdgeStyle;shape=connector;rounded=0;orthogonalLoop=1;jettySize=auto;html=1;exitX=0.5;exitY=1;exitDx=0;exitDy=0;entryX=0;entryY=0.5;entryDx=0;entryDy=0;labelBackgroundColor=default;strokeColor=default;strokeWidth=1;fontFamily=Helvetica;fontSize=11;fontColor=default;startArrow=block;startFill=1;endArrow=block;endFill=1;" parent="1" source="65VxoNCgQf6FpiBaKDHk-2" target="65VxoNCgQf6FpiBaKDHk-18" edge="1">
          <mxGeometry relative="1" as="geometry" />
        </mxCell>
        <mxCell id="65VxoNCgQf6FpiBaKDHk-22" style="edgeStyle=orthogonalEdgeStyle;shape=connector;rounded=0;orthogonalLoop=1;jettySize=auto;html=1;exitX=0.25;exitY=1;exitDx=0;exitDy=0;entryX=0;entryY=0.5;entryDx=0;entryDy=0;labelBackgroundColor=default;strokeColor=default;strokeWidth=1;fontFamily=Helvetica;fontSize=11;fontColor=default;startArrow=block;startFill=1;endArrow=block;endFill=1;" parent="1" source="65VxoNCgQf6FpiBaKDHk-2" target="65VxoNCgQf6FpiBaKDHk-19" edge="1">
          <mxGeometry relative="1" as="geometry" />
        </mxCell>
        <mxCell id="65VxoNCgQf6FpiBaKDHk-27" style="edgeStyle=orthogonalEdgeStyle;shape=connector;rounded=0;orthogonalLoop=1;jettySize=auto;html=1;exitX=0.25;exitY=0;exitDx=0;exitDy=0;entryX=0.5;entryY=0;entryDx=0;entryDy=0;labelBackgroundColor=default;strokeColor=default;strokeWidth=1;fontFamily=Helvetica;fontSize=11;fontColor=default;startArrow=block;startFill=1;endArrow=block;endFill=1;" parent="1" source="65VxoNCgQf6FpiBaKDHk-2" target="65VxoNCgQf6FpiBaKDHk-23" edge="1">
          <mxGeometry relative="1" as="geometry">
            <Array as="points">
              <mxPoint x="310" y="45" />
              <mxPoint x="720" y="45" />
            </Array>
          </mxGeometry>
        </mxCell>
        <mxCell id="65VxoNCgQf6FpiBaKDHk-56" style="edgeStyle=orthogonalEdgeStyle;shape=connector;rounded=0;orthogonalLoop=1;jettySize=auto;html=1;exitX=0;exitY=0.75;exitDx=0;exitDy=0;entryX=0.5;entryY=0;entryDx=0;entryDy=0;labelBackgroundColor=default;strokeColor=default;strokeWidth=1;fontFamily=Helvetica;fontSize=11;fontColor=default;startArrow=classicThin;startFill=1;endArrow=classicThin;endFill=1;" parent="1" source="65VxoNCgQf6FpiBaKDHk-2" target="65VxoNCgQf6FpiBaKDHk-54" edge="1">
          <mxGeometry relative="1" as="geometry">
            <mxPoint x="245" y="385" as="targetPoint" />
          </mxGeometry>
        </mxCell>
        <mxCell id="65VxoNCgQf6FpiBaKDHk-2" value="IoT Controller" style="rounded=0;whiteSpace=wrap;html=1;fillColor=#f5f5f5;fontColor=#333333;strokeColor=#666666;fontStyle=4" parent="1" vertex="1">
          <mxGeometry x="280" y="205" width="120" height="40" as="geometry" />
        </mxCell>
        <mxCell id="65VxoNCgQf6FpiBaKDHk-57" style="edgeStyle=orthogonalEdgeStyle;shape=connector;rounded=0;orthogonalLoop=1;jettySize=auto;html=1;exitX=0.75;exitY=0;exitDx=0;exitDy=0;entryX=0.5;entryY=0;entryDx=0;entryDy=0;labelBackgroundColor=default;strokeColor=default;strokeWidth=1;fontFamily=Helvetica;fontSize=11;fontColor=default;startArrow=block;startFill=1;endArrow=block;endFill=1;" parent="1" source="65VxoNCgQf6FpiBaKDHk-3" target="65VxoNCgQf6FpiBaKDHk-4" edge="1">
          <mxGeometry relative="1" as="geometry" />
        </mxCell>
        <mxCell id="65VxoNCgQf6FpiBaKDHk-61" style="edgeStyle=orthogonalEdgeStyle;shape=connector;rounded=0;orthogonalLoop=1;jettySize=auto;html=1;exitX=0.25;exitY=0;exitDx=0;exitDy=0;entryX=0.5;entryY=1;entryDx=0;entryDy=0;labelBackgroundColor=default;strokeColor=default;strokeWidth=1;fontFamily=Helvetica;fontSize=11;fontColor=default;startArrow=block;startFill=1;endArrow=block;endFill=1;" parent="1" source="65VxoNCgQf6FpiBaKDHk-3" target="65VxoNCgQf6FpiBaKDHk-60" edge="1">
          <mxGeometry relative="1" as="geometry" />
        </mxCell>
        <mxCell id="65VxoNCgQf6FpiBaKDHk-3" value="Router" style="rounded=0;whiteSpace=wrap;html=1;fillColor=#f5f5f5;fontColor=#333333;strokeColor=#666666;rotation=90;" parent="1" vertex="1">
          <mxGeometry x="-20" y="205" width="120" height="40" as="geometry" />
        </mxCell>
        <mxCell id="65VxoNCgQf6FpiBaKDHk-59" style="edgeStyle=orthogonalEdgeStyle;shape=connector;rounded=0;orthogonalLoop=1;jettySize=auto;html=1;exitX=0.5;exitY=1;exitDx=0;exitDy=0;entryX=0.5;entryY=0;entryDx=0;entryDy=0;dashed=1;labelBackgroundColor=default;strokeColor=default;strokeWidth=1;fontFamily=Helvetica;fontSize=11;fontColor=default;startArrow=classicThin;startFill=1;endArrow=classicThin;endFill=1;" parent="1" source="65VxoNCgQf6FpiBaKDHk-4" target="65VxoNCgQf6FpiBaKDHk-58" edge="1">
          <mxGeometry relative="1" as="geometry" />
        </mxCell>
        <mxCell id="65VxoNCgQf6FpiBaKDHk-4" value="Printer" style="rounded=0;whiteSpace=wrap;html=1;fillColor=#f5f5f5;fontColor=#333333;strokeColor=#666666;fontStyle=4" parent="1" vertex="1">
          <mxGeometry x="80" y="280" width="120" height="40" as="geometry" />
        </mxCell>
        <mxCell id="65VxoNCgQf6FpiBaKDHk-38" style="edgeStyle=orthogonalEdgeStyle;shape=connector;rounded=0;orthogonalLoop=1;jettySize=auto;html=1;exitX=1;exitY=0.5;exitDx=0;exitDy=0;entryX=-0.006;entryY=0.617;entryDx=0;entryDy=0;entryPerimeter=0;dashed=1;labelBackgroundColor=default;strokeColor=default;strokeWidth=1;fontFamily=Helvetica;fontSize=11;fontColor=default;startArrow=classicThin;startFill=1;endArrow=classicThin;endFill=1;" parent="1" source="65VxoNCgQf6FpiBaKDHk-46" target="65VxoNCgQf6FpiBaKDHk-23" edge="1">
          <mxGeometry relative="1" as="geometry">
            <Array as="points">
              <mxPoint x="660" y="275" />
              <mxPoint x="660" y="232" />
            </Array>
          </mxGeometry>
        </mxCell>
        <mxCell id="65VxoNCgQf6FpiBaKDHk-5" value="Alarm System" style="rounded=0;whiteSpace=wrap;html=1;fillColor=#f5f5f5;fontColor=#333333;strokeColor=#666666;fontStyle=4" parent="1" vertex="1">
          <mxGeometry x="440" y="255" width="120" height="40" as="geometry" />
        </mxCell>
        <mxCell id="65VxoNCgQf6FpiBaKDHk-30" style="edgeStyle=orthogonalEdgeStyle;shape=connector;rounded=0;orthogonalLoop=1;jettySize=auto;html=1;exitX=1;exitY=0.5;exitDx=0;exitDy=0;entryX=0;entryY=0.5;entryDx=0;entryDy=0;labelBackgroundColor=default;strokeColor=default;strokeWidth=1;fontFamily=Helvetica;fontSize=11;fontColor=default;startArrow=classicThin;startFill=1;endArrow=classicThin;endFill=1;" parent="1" source="65VxoNCgQf6FpiBaKDHk-6" target="65VxoNCgQf6FpiBaKDHk-24" edge="1">
          <mxGeometry relative="1" as="geometry" />
        </mxCell>
        <mxCell id="65VxoNCgQf6FpiBaKDHk-6" value="Gate Controller" style="rounded=0;whiteSpace=wrap;html=1;fillColor=#f5f5f5;fontColor=#333333;strokeColor=#666666;fontStyle=4" parent="1" vertex="1">
          <mxGeometry x="440" y="205" width="120" height="40" as="geometry" />
        </mxCell>
        <mxCell id="65VxoNCgQf6FpiBaKDHk-29" style="edgeStyle=orthogonalEdgeStyle;shape=connector;rounded=0;orthogonalLoop=1;jettySize=auto;html=1;exitX=1;exitY=0.5;exitDx=0;exitDy=0;entryX=0;entryY=0.5;entryDx=0;entryDy=0;labelBackgroundColor=default;strokeColor=default;strokeWidth=1;fontFamily=Helvetica;fontSize=11;fontColor=default;startArrow=classicThin;startFill=1;endArrow=classicThin;endFill=1;" parent="1" source="65VxoNCgQf6FpiBaKDHk-7" target="65VxoNCgQf6FpiBaKDHk-25" edge="1">
          <mxGeometry relative="1" as="geometry" />
        </mxCell>
        <mxCell id="65VxoNCgQf6FpiBaKDHk-7" value="Door Lock" style="rounded=0;whiteSpace=wrap;html=1;fillColor=#f5f5f5;fontColor=#333333;strokeColor=#666666;fontStyle=4" parent="1" vertex="1">
          <mxGeometry x="440" y="155" width="120" height="40" as="geometry" />
        </mxCell>
        <mxCell id="65VxoNCgQf6FpiBaKDHk-14" style="edgeStyle=orthogonalEdgeStyle;shape=connector;rounded=0;orthogonalLoop=1;jettySize=auto;html=1;exitX=0;exitY=0.5;exitDx=0;exitDy=0;entryX=0.75;entryY=0;entryDx=0;entryDy=0;labelBackgroundColor=default;strokeColor=default;strokeWidth=1;fontFamily=Helvetica;fontSize=11;fontColor=default;startArrow=block;startFill=1;endArrow=block;endFill=1;" parent="1" source="65VxoNCgQf6FpiBaKDHk-13" target="65VxoNCgQf6FpiBaKDHk-2" edge="1">
          <mxGeometry relative="1" as="geometry" />
        </mxCell>
        <mxCell id="65VxoNCgQf6FpiBaKDHk-36" style="edgeStyle=orthogonalEdgeStyle;shape=connector;rounded=0;orthogonalLoop=1;jettySize=auto;html=1;exitX=1;exitY=0.5;exitDx=0;exitDy=0;entryX=0.074;entryY=0.207;entryDx=0;entryDy=0;entryPerimeter=0;dashed=1;labelBackgroundColor=default;strokeColor=default;strokeWidth=1;fontFamily=Helvetica;fontSize=11;fontColor=default;startArrow=classicThin;startFill=1;endArrow=classicThin;endFill=1;" parent="1" source="65VxoNCgQf6FpiBaKDHk-42" target="65VxoNCgQf6FpiBaKDHk-23" edge="1">
          <mxGeometry relative="1" as="geometry">
            <Array as="points">
              <mxPoint x="670" y="125" />
              <mxPoint x="670" y="207" />
              <mxPoint x="694" y="207" />
            </Array>
          </mxGeometry>
        </mxCell>
        <mxCell id="65VxoNCgQf6FpiBaKDHk-13" value="Humidity Controller" style="rounded=0;whiteSpace=wrap;html=1;fillColor=#f5f5f5;fontColor=#333333;strokeColor=#666666;fontStyle=4" parent="1" vertex="1">
          <mxGeometry x="440" y="105" width="120" height="40" as="geometry" />
        </mxCell>
        <mxCell id="65VxoNCgQf6FpiBaKDHk-16" style="edgeStyle=orthogonalEdgeStyle;shape=connector;rounded=0;orthogonalLoop=1;jettySize=auto;html=1;exitX=0;exitY=0.5;exitDx=0;exitDy=0;entryX=0.75;entryY=1;entryDx=0;entryDy=0;labelBackgroundColor=default;strokeColor=default;strokeWidth=1;fontFamily=Helvetica;fontSize=11;fontColor=default;startArrow=block;startFill=1;endArrow=block;endFill=1;" parent="1" source="65VxoNCgQf6FpiBaKDHk-15" target="65VxoNCgQf6FpiBaKDHk-2" edge="1">
          <mxGeometry relative="1" as="geometry" />
        </mxCell>
        <mxCell id="65VxoNCgQf6FpiBaKDHk-39" style="edgeStyle=orthogonalEdgeStyle;shape=connector;rounded=0;orthogonalLoop=1;jettySize=auto;html=1;exitX=1;exitY=0.5;exitDx=0;exitDy=0;entryX=0.08;entryY=0.802;entryDx=0;entryDy=0;entryPerimeter=0;dashed=1;labelBackgroundColor=default;strokeColor=default;strokeWidth=1;fontFamily=Helvetica;fontSize=11;fontColor=default;startArrow=classicThin;startFill=1;endArrow=classicThin;endFill=1;" parent="1" source="65VxoNCgQf6FpiBaKDHk-48" target="65VxoNCgQf6FpiBaKDHk-23" edge="1">
          <mxGeometry relative="1" as="geometry">
            <Array as="points">
              <mxPoint x="670" y="325" />
              <mxPoint x="670" y="243" />
            </Array>
          </mxGeometry>
        </mxCell>
        <mxCell id="65VxoNCgQf6FpiBaKDHk-15" value="Smoke Detector" style="rounded=0;whiteSpace=wrap;html=1;fillColor=#f5f5f5;fontColor=#333333;strokeColor=#666666;fontStyle=4" parent="1" vertex="1">
          <mxGeometry x="440" y="305" width="120" height="40" as="geometry" />
        </mxCell>
        <mxCell id="65VxoNCgQf6FpiBaKDHk-37" style="edgeStyle=orthogonalEdgeStyle;shape=connector;rounded=0;orthogonalLoop=1;jettySize=auto;html=1;exitX=1;exitY=0.5;exitDx=0;exitDy=0;entryX=0.216;entryY=0.07;entryDx=0;entryDy=0;dashed=1;labelBackgroundColor=default;strokeColor=default;strokeWidth=1;fontFamily=Helvetica;fontSize=11;fontColor=default;startArrow=classicThin;startFill=1;endArrow=classicThin;endFill=1;entryPerimeter=0;" parent="1" source="65VxoNCgQf6FpiBaKDHk-44" target="65VxoNCgQf6FpiBaKDHk-23" edge="1">
          <mxGeometry relative="1" as="geometry">
            <Array as="points">
              <mxPoint x="680" y="75" />
              <mxPoint x="680" y="199" />
              <mxPoint x="703" y="199" />
            </Array>
          </mxGeometry>
        </mxCell>
        <mxCell id="65VxoNCgQf6FpiBaKDHk-17" value="Motion Sensor" style="rounded=0;whiteSpace=wrap;html=1;fillColor=#f5f5f5;fontColor=#333333;strokeColor=#666666;fontStyle=4" parent="1" vertex="1">
          <mxGeometry x="440" y="55" width="120" height="40" as="geometry" />
        </mxCell>
        <mxCell id="65VxoNCgQf6FpiBaKDHk-40" style="edgeStyle=orthogonalEdgeStyle;shape=connector;rounded=0;orthogonalLoop=1;jettySize=auto;html=1;exitX=1;exitY=0.5;exitDx=0;exitDy=0;entryX=0.353;entryY=0.977;entryDx=0;entryDy=0;entryPerimeter=0;dashed=1;labelBackgroundColor=default;strokeColor=default;strokeWidth=1;fontFamily=Helvetica;fontSize=11;fontColor=default;startArrow=classicThin;startFill=1;endArrow=classicThin;endFill=1;" parent="1" source="65VxoNCgQf6FpiBaKDHk-50" target="65VxoNCgQf6FpiBaKDHk-23" edge="1">
          <mxGeometry relative="1" as="geometry">
            <mxPoint x="558.08" y="373.74" as="sourcePoint" />
            <mxPoint x="690.0000000000001" y="240" as="targetPoint" />
            <Array as="points">
              <mxPoint x="680" y="374" />
              <mxPoint x="680" y="254" />
              <mxPoint x="711" y="254" />
            </Array>
          </mxGeometry>
        </mxCell>
        <mxCell id="65VxoNCgQf6FpiBaKDHk-18" value="Temperature Controller" style="rounded=0;whiteSpace=wrap;html=1;fillColor=#f5f5f5;fontColor=#333333;strokeColor=#666666;fontStyle=4" parent="1" vertex="1">
          <mxGeometry x="440" y="355" width="120" height="40" as="geometry" />
        </mxCell>
        <mxCell id="65VxoNCgQf6FpiBaKDHk-41" style="edgeStyle=orthogonalEdgeStyle;shape=connector;rounded=0;orthogonalLoop=1;jettySize=auto;html=1;exitX=1;exitY=0.5;exitDx=0;exitDy=0;entryX=0.5;entryY=1;entryDx=0;entryDy=0;dashed=1;labelBackgroundColor=default;strokeColor=default;strokeWidth=1;fontFamily=Helvetica;fontSize=11;fontColor=default;startArrow=classicThin;startFill=1;endArrow=classicThin;endFill=1;" parent="1" source="65VxoNCgQf6FpiBaKDHk-52" target="65VxoNCgQf6FpiBaKDHk-23" edge="1">
          <mxGeometry relative="1" as="geometry" />
        </mxCell>
        <mxCell id="65VxoNCgQf6FpiBaKDHk-19" value="Lighting Controller" style="rounded=0;whiteSpace=wrap;html=1;fillColor=#f5f5f5;fontColor=#333333;strokeColor=#666666;fontStyle=4" parent="1" vertex="1">
          <mxGeometry x="440" y="405" width="120" height="40" as="geometry" />
        </mxCell>
        <mxCell id="65VxoNCgQf6FpiBaKDHk-23" value="Database" style="ellipse;whiteSpace=wrap;html=1;aspect=fixed;fontFamily=Helvetica;fontSize=11;fillColor=#f8cecc;strokeColor=#b85450;" parent="1" vertex="1">
          <mxGeometry x="690" y="195" width="60" height="60" as="geometry" />
        </mxCell>
        <mxCell id="65VxoNCgQf6FpiBaKDHk-34" style="edgeStyle=orthogonalEdgeStyle;shape=connector;rounded=0;orthogonalLoop=1;jettySize=auto;html=1;exitX=1;exitY=0.5;exitDx=0;exitDy=0;entryX=0;entryY=0.5;entryDx=0;entryDy=0;dashed=1;labelBackgroundColor=default;strokeColor=default;strokeWidth=1;fontFamily=Helvetica;fontSize=11;fontColor=default;startArrow=classicThin;startFill=1;endArrow=classicThin;endFill=1;" parent="1" source="65VxoNCgQf6FpiBaKDHk-24" target="65VxoNCgQf6FpiBaKDHk-23" edge="1">
          <mxGeometry relative="1" as="geometry" />
        </mxCell>
        <mxCell id="65VxoNCgQf6FpiBaKDHk-24" value="" style="ellipse;whiteSpace=wrap;html=1;aspect=fixed;fontFamily=Helvetica;fontSize=11;fillColor=#f8cecc;strokeColor=#b85450;" parent="1" vertex="1">
          <mxGeometry x="600" y="210" width="30" height="30" as="geometry" />
        </mxCell>
        <mxCell id="65VxoNCgQf6FpiBaKDHk-35" style="edgeStyle=orthogonalEdgeStyle;shape=connector;rounded=0;orthogonalLoop=1;jettySize=auto;html=1;exitX=1;exitY=0.5;exitDx=0;exitDy=0;entryX=0.006;entryY=0.373;entryDx=0;entryDy=0;entryPerimeter=0;dashed=1;labelBackgroundColor=default;strokeColor=default;strokeWidth=1;fontFamily=Helvetica;fontSize=11;fontColor=default;startArrow=classicThin;startFill=1;endArrow=classicThin;endFill=1;" parent="1" source="65VxoNCgQf6FpiBaKDHk-25" target="65VxoNCgQf6FpiBaKDHk-23" edge="1">
          <mxGeometry relative="1" as="geometry" />
        </mxCell>
        <mxCell id="65VxoNCgQf6FpiBaKDHk-25" value="" style="ellipse;whiteSpace=wrap;html=1;aspect=fixed;fontFamily=Helvetica;fontSize=11;fillColor=#f8cecc;strokeColor=#b85450;" parent="1" vertex="1">
          <mxGeometry x="600" y="160" width="30" height="30" as="geometry" />
        </mxCell>
        <mxCell id="65VxoNCgQf6FpiBaKDHk-43" value="" style="edgeStyle=orthogonalEdgeStyle;shape=connector;rounded=0;orthogonalLoop=1;jettySize=auto;html=1;exitX=1;exitY=0.5;exitDx=0;exitDy=0;entryX=0;entryY=0.5;entryDx=0;entryDy=0;labelBackgroundColor=default;strokeColor=default;strokeWidth=1;fontFamily=Helvetica;fontSize=11;fontColor=default;startArrow=classicThin;startFill=1;endArrow=classicThin;endFill=1;" parent="1" source="65VxoNCgQf6FpiBaKDHk-13" target="65VxoNCgQf6FpiBaKDHk-42" edge="1">
          <mxGeometry relative="1" as="geometry">
            <mxPoint x="560" y="125" as="sourcePoint" />
            <mxPoint x="694" y="207" as="targetPoint" />
            <Array as="points" />
          </mxGeometry>
        </mxCell>
        <mxCell id="65VxoNCgQf6FpiBaKDHk-42" value="" style="ellipse;whiteSpace=wrap;html=1;aspect=fixed;fontFamily=Helvetica;fontSize=11;fillColor=#f5f5f5;strokeColor=#666666;fontColor=#333333;" parent="1" vertex="1">
          <mxGeometry x="600" y="110" width="30" height="30" as="geometry" />
        </mxCell>
        <mxCell id="65VxoNCgQf6FpiBaKDHk-45" value="" style="edgeStyle=orthogonalEdgeStyle;shape=connector;rounded=0;orthogonalLoop=1;jettySize=auto;html=1;exitX=1;exitY=0.5;exitDx=0;exitDy=0;entryX=0;entryY=0.5;entryDx=0;entryDy=0;labelBackgroundColor=default;strokeColor=default;strokeWidth=1;fontFamily=Helvetica;fontSize=11;fontColor=default;startArrow=classicThin;startFill=1;endArrow=classicThin;endFill=1;" parent="1" source="65VxoNCgQf6FpiBaKDHk-17" target="65VxoNCgQf6FpiBaKDHk-44" edge="1">
          <mxGeometry relative="1" as="geometry">
            <mxPoint x="560" y="75" as="sourcePoint" />
            <mxPoint x="703" y="199" as="targetPoint" />
            <Array as="points" />
          </mxGeometry>
        </mxCell>
        <mxCell id="65VxoNCgQf6FpiBaKDHk-44" value="" style="ellipse;whiteSpace=wrap;html=1;aspect=fixed;fontFamily=Helvetica;fontSize=11;fillColor=#f5f5f5;strokeColor=#666666;fontColor=#333333;" parent="1" vertex="1">
          <mxGeometry x="600" y="60" width="30" height="30" as="geometry" />
        </mxCell>
        <mxCell id="65VxoNCgQf6FpiBaKDHk-47" value="" style="edgeStyle=orthogonalEdgeStyle;shape=connector;rounded=0;orthogonalLoop=1;jettySize=auto;html=1;exitX=1;exitY=0.5;exitDx=0;exitDy=0;entryX=0;entryY=0.5;entryDx=0;entryDy=0;labelBackgroundColor=default;strokeColor=default;strokeWidth=1;fontFamily=Helvetica;fontSize=11;fontColor=default;startArrow=classicThin;startFill=1;endArrow=classicThin;endFill=1;" parent="1" source="65VxoNCgQf6FpiBaKDHk-5" target="65VxoNCgQf6FpiBaKDHk-46" edge="1">
          <mxGeometry relative="1" as="geometry">
            <mxPoint x="560" y="275" as="sourcePoint" />
            <mxPoint x="690" y="232" as="targetPoint" />
            <Array as="points">
              <mxPoint x="590" y="275" />
              <mxPoint x="590" y="275" />
            </Array>
          </mxGeometry>
        </mxCell>
        <mxCell id="65VxoNCgQf6FpiBaKDHk-46" value="" style="ellipse;whiteSpace=wrap;html=1;aspect=fixed;fontFamily=Helvetica;fontSize=11;fillColor=#f8cecc;strokeColor=#b85450;" parent="1" vertex="1">
          <mxGeometry x="600" y="260" width="30" height="30" as="geometry" />
        </mxCell>
        <mxCell id="65VxoNCgQf6FpiBaKDHk-49" value="" style="edgeStyle=orthogonalEdgeStyle;shape=connector;rounded=0;orthogonalLoop=1;jettySize=auto;html=1;exitX=1;exitY=0.5;exitDx=0;exitDy=0;entryX=0;entryY=0.5;entryDx=0;entryDy=0;labelBackgroundColor=default;strokeColor=default;strokeWidth=1;fontFamily=Helvetica;fontSize=11;fontColor=default;startArrow=classicThin;startFill=1;endArrow=classicThin;endFill=1;" parent="1" source="65VxoNCgQf6FpiBaKDHk-15" target="65VxoNCgQf6FpiBaKDHk-48" edge="1">
          <mxGeometry relative="1" as="geometry">
            <mxPoint x="560" y="325" as="sourcePoint" />
            <mxPoint x="695" y="243" as="targetPoint" />
            <Array as="points" />
          </mxGeometry>
        </mxCell>
        <mxCell id="65VxoNCgQf6FpiBaKDHk-48" value="" style="ellipse;whiteSpace=wrap;html=1;aspect=fixed;fontFamily=Helvetica;fontSize=11;fillColor=#f5f5f5;strokeColor=#666666;fontColor=#333333;" parent="1" vertex="1">
          <mxGeometry x="600" y="310" width="30" height="30" as="geometry" />
        </mxCell>
        <mxCell id="65VxoNCgQf6FpiBaKDHk-51" value="" style="edgeStyle=orthogonalEdgeStyle;shape=connector;rounded=0;orthogonalLoop=1;jettySize=auto;html=1;exitX=1;exitY=0.5;exitDx=0;exitDy=0;entryX=0;entryY=0.5;entryDx=0;entryDy=0;labelBackgroundColor=default;strokeColor=default;strokeWidth=1;fontFamily=Helvetica;fontSize=11;fontColor=default;startArrow=classicThin;startFill=1;endArrow=classicThin;endFill=1;" parent="1" target="65VxoNCgQf6FpiBaKDHk-50" edge="1">
          <mxGeometry relative="1" as="geometry">
            <mxPoint x="558.08" y="373.74" as="sourcePoint" />
            <mxPoint x="711" y="254" as="targetPoint" />
            <Array as="points" />
          </mxGeometry>
        </mxCell>
        <mxCell id="65VxoNCgQf6FpiBaKDHk-50" value="" style="ellipse;whiteSpace=wrap;html=1;aspect=fixed;fontFamily=Helvetica;fontSize=11;fillColor=#f5f5f5;strokeColor=#666666;fontColor=#333333;" parent="1" vertex="1">
          <mxGeometry x="600" y="360" width="30" height="30" as="geometry" />
        </mxCell>
        <mxCell id="65VxoNCgQf6FpiBaKDHk-53" value="" style="edgeStyle=orthogonalEdgeStyle;shape=connector;rounded=0;orthogonalLoop=1;jettySize=auto;html=1;exitX=1;exitY=0.5;exitDx=0;exitDy=0;entryX=0;entryY=0.5;entryDx=0;entryDy=0;labelBackgroundColor=default;strokeColor=default;strokeWidth=1;fontFamily=Helvetica;fontSize=11;fontColor=default;startArrow=classicThin;startFill=1;endArrow=classicThin;endFill=1;" parent="1" source="65VxoNCgQf6FpiBaKDHk-19" target="65VxoNCgQf6FpiBaKDHk-52" edge="1">
          <mxGeometry relative="1" as="geometry">
            <mxPoint x="560" y="425" as="sourcePoint" />
            <mxPoint x="720" y="255" as="targetPoint" />
          </mxGeometry>
        </mxCell>
        <mxCell id="65VxoNCgQf6FpiBaKDHk-52" value="" style="ellipse;whiteSpace=wrap;html=1;aspect=fixed;fontFamily=Helvetica;fontSize=11;fillColor=#f5f5f5;strokeColor=#666666;fontColor=#333333;" parent="1" vertex="1">
          <mxGeometry x="600" y="410" width="30" height="30" as="geometry" />
        </mxCell>
        <mxCell id="65VxoNCgQf6FpiBaKDHk-75" style="edgeStyle=orthogonalEdgeStyle;shape=connector;rounded=0;orthogonalLoop=1;jettySize=auto;html=1;exitX=0.982;exitY=0.642;exitDx=0;exitDy=0;entryX=0.724;entryY=0.937;entryDx=0;entryDy=0;entryPerimeter=0;dashed=1;labelBackgroundColor=default;strokeColor=default;strokeWidth=1;fontFamily=Helvetica;fontSize=11;fontColor=default;startArrow=classicThin;startFill=1;endArrow=classicThin;endFill=1;exitPerimeter=0;" parent="1" source="65VxoNCgQf6FpiBaKDHk-54" target="65VxoNCgQf6FpiBaKDHk-23" edge="1">
          <mxGeometry relative="1" as="geometry">
            <mxPoint x="269.74873734152925" y="444.74873734152925" as="sourcePoint" />
            <Array as="points">
              <mxPoint x="320" y="454" />
              <mxPoint x="733" y="455" />
            </Array>
          </mxGeometry>
        </mxCell>
        <mxCell id="65VxoNCgQf6FpiBaKDHk-54" value="Controller&lt;br&gt;Software" style="ellipse;whiteSpace=wrap;html=1;aspect=fixed;fontFamily=Helvetica;fontSize=11;fillColor=#f5f5f5;strokeColor=#666666;fontColor=#333333;" parent="1" vertex="1">
          <mxGeometry x="210" y="412.5" width="65" height="65" as="geometry" />
        </mxCell>
        <mxCell id="65VxoNCgQf6FpiBaKDHk-58" value="Printer&lt;br&gt;Software" style="ellipse;whiteSpace=wrap;html=1;aspect=fixed;fontFamily=Helvetica;fontSize=11;fillColor=#f5f5f5;strokeColor=#666666;fontColor=#333333;" parent="1" vertex="1">
          <mxGeometry x="105" y="342.5" width="70" height="70" as="geometry" />
        </mxCell>
        <mxCell id="65VxoNCgQf6FpiBaKDHk-94" style="edgeStyle=orthogonalEdgeStyle;shape=connector;rounded=0;orthogonalLoop=1;jettySize=auto;html=1;exitX=1;exitY=0.5;exitDx=0;exitDy=0;labelBackgroundColor=default;strokeColor=default;strokeWidth=1;fontFamily=Helvetica;fontSize=11;fontColor=default;startArrow=classicThin;startFill=1;endArrow=classicThin;endFill=1;" parent="1" source="65VxoNCgQf6FpiBaKDHk-60" target="65VxoNCgQf6FpiBaKDHk-62" edge="1">
          <mxGeometry relative="1" as="geometry" />
        </mxCell>
        <mxCell id="65VxoNCgQf6FpiBaKDHk-60" value="Desktop PC" style="rounded=0;whiteSpace=wrap;html=1;fillColor=#f5f5f5;fontColor=#333333;strokeColor=#666666;rotation=0;" parent="1" vertex="1">
          <mxGeometry x="60" y="70" width="120" height="40" as="geometry" />
        </mxCell>
        <mxCell id="65VxoNCgQf6FpiBaKDHk-62" value="" style="ellipse;whiteSpace=wrap;html=1;aspect=fixed;fontFamily=Helvetica;fontSize=11;fillColor=#f5f5f5;strokeColor=#666666;fontColor=#333333;" parent="1" vertex="1">
          <mxGeometry x="220" y="75" width="30" height="30" as="geometry" />
        </mxCell>
        <mxCell id="65VxoNCgQf6FpiBaKDHk-70" value="" style="rounded=0;whiteSpace=wrap;html=1;dashed=1;movable=0;resizable=0;rotatable=0;deletable=0;editable=0;locked=1;connectable=0;dashPattern=1 4;" parent="1" vertex="1">
          <mxGeometry x="-160" y="280" width="160" height="200" as="geometry" />
        </mxCell>
        <mxCell id="65VxoNCgQf6FpiBaKDHk-72" style="edgeStyle=orthogonalEdgeStyle;shape=connector;rounded=0;orthogonalLoop=1;jettySize=auto;html=1;exitX=1;exitY=0.5;exitDx=0;exitDy=0;entryX=0;entryY=0.5;entryDx=0;entryDy=0;dashed=1;labelBackgroundColor=default;strokeColor=default;strokeWidth=1;fontFamily=Helvetica;fontSize=11;fontColor=default;startArrow=classicThin;startFill=1;endArrow=classicThin;endFill=1;" parent="1" source="65VxoNCgQf6FpiBaKDHk-71" target="65VxoNCgQf6FpiBaKDHk-58" edge="1">
          <mxGeometry relative="1" as="geometry">
            <Array as="points">
              <mxPoint x="80" y="340" />
              <mxPoint x="80" y="378" />
              <mxPoint x="105" y="378" />
            </Array>
          </mxGeometry>
        </mxCell>
        <mxCell id="65VxoNCgQf6FpiBaKDHk-71" value="Cloud Print Service" style="rounded=1;whiteSpace=wrap;html=1;rotation=0;fillStyle=auto;fillColor=#f5f5f5;fontColor=#333333;strokeColor=#666666;arcSize=40;" parent="1" vertex="1">
          <mxGeometry x="-140" y="320" width="120" height="40" as="geometry" />
        </mxCell>
        <mxCell id="65VxoNCgQf6FpiBaKDHk-74" style="edgeStyle=orthogonalEdgeStyle;shape=connector;rounded=0;orthogonalLoop=1;jettySize=auto;html=1;exitX=1;exitY=0.5;exitDx=0;exitDy=0;entryX=0;entryY=0.5;entryDx=0;entryDy=0;dashed=1;labelBackgroundColor=default;strokeColor=default;strokeWidth=1;fontFamily=Helvetica;fontSize=11;fontColor=default;startArrow=classicThin;startFill=1;endArrow=classicThin;endFill=1;" parent="1" source="8-u3lzmufBc6lLuJ5G9J-3" target="65VxoNCgQf6FpiBaKDHk-54" edge="1">
          <mxGeometry relative="1" as="geometry">
            <Array as="points" />
            <mxPoint x="-20" y="445" as="sourcePoint" />
          </mxGeometry>
        </mxCell>
        <mxCell id="65VxoNCgQf6FpiBaKDHk-77" style="edgeStyle=orthogonalEdgeStyle;shape=connector;rounded=0;orthogonalLoop=1;jettySize=auto;html=1;exitX=1;exitY=0.5;exitDx=0;exitDy=0;dashed=1;labelBackgroundColor=default;strokeColor=default;strokeWidth=1;fontFamily=Helvetica;fontSize=11;fontColor=default;startArrow=classicThin;startFill=1;endArrow=classicThin;endFill=1;entryX=0.058;entryY=0.285;entryDx=0;entryDy=0;entryPerimeter=0;exitPerimeter=0;" parent="1" source="8-u3lzmufBc6lLuJ5G9J-2" target="65VxoNCgQf6FpiBaKDHk-54" edge="1">
          <mxGeometry relative="1" as="geometry">
            <mxPoint x="210" y="445" as="targetPoint" />
            <Array as="points">
              <mxPoint x="70" y="393" />
              <mxPoint x="70" y="430" />
            </Array>
            <mxPoint x="-20" y="392.5" as="sourcePoint" />
          </mxGeometry>
        </mxCell>
        <mxCell id="65VxoNCgQf6FpiBaKDHk-85" style="edgeStyle=orthogonalEdgeStyle;shape=connector;rounded=0;orthogonalLoop=1;jettySize=auto;html=1;exitX=0.75;exitY=0;exitDx=0;exitDy=0;labelBackgroundColor=default;strokeColor=default;strokeWidth=1;fontFamily=Helvetica;fontSize=11;fontColor=default;startArrow=block;startFill=1;endArrow=block;endFill=1;" parent="1" source="65VxoNCgQf6FpiBaKDHk-79" edge="1">
          <mxGeometry relative="1" as="geometry">
            <mxPoint x="20" y="255" as="targetPoint" />
            <Array as="points">
              <mxPoint x="-40" y="255" />
            </Array>
          </mxGeometry>
        </mxCell>
        <mxCell id="65VxoNCgQf6FpiBaKDHk-79" value="Cloud Software" style="text;html=1;strokeColor=none;fillColor=none;align=left;verticalAlign=middle;whiteSpace=wrap;rounded=0;fontSize=11;fontFamily=Helvetica;fontColor=default;spacingLeft=16;" parent="1" vertex="1">
          <mxGeometry x="-160" y="280" width="160" height="30" as="geometry" />
        </mxCell>
        <mxCell id="65VxoNCgQf6FpiBaKDHk-80" value="Private Home Network" style="text;html=1;strokeColor=none;fillColor=none;align=left;verticalAlign=middle;whiteSpace=wrap;rounded=0;fontSize=11;fontFamily=Helvetica;fontColor=default;spacingLeft=16;" parent="1" vertex="1">
          <mxGeometry x="40" y="20" width="160" height="30" as="geometry" />
        </mxCell>
        <mxCell id="65VxoNCgQf6FpiBaKDHk-83" style="edgeStyle=orthogonalEdgeStyle;shape=connector;rounded=0;orthogonalLoop=1;jettySize=auto;html=1;exitX=1;exitY=0.5;exitDx=0;exitDy=0;labelBackgroundColor=default;strokeColor=default;strokeWidth=1;fontFamily=Helvetica;fontSize=11;fontColor=default;startArrow=block;startFill=1;endArrow=block;endFill=1;" parent="1" source="65VxoNCgQf6FpiBaKDHk-81" edge="1">
          <mxGeometry relative="1" as="geometry">
            <mxPoint x="20" y="210" as="targetPoint" />
          </mxGeometry>
        </mxCell>
        <mxCell id="65VxoNCgQf6FpiBaKDHk-91" style="edgeStyle=orthogonalEdgeStyle;shape=connector;rounded=0;orthogonalLoop=1;jettySize=auto;html=1;exitX=0.5;exitY=0;exitDx=0;exitDy=0;entryX=0.5;entryY=1;entryDx=0;entryDy=0;labelBackgroundColor=default;strokeColor=default;strokeWidth=1;fontFamily=Helvetica;fontSize=11;fontColor=default;startArrow=block;startFill=1;endArrow=block;endFill=1;" parent="1" source="65VxoNCgQf6FpiBaKDHk-81" target="65VxoNCgQf6FpiBaKDHk-87" edge="1">
          <mxGeometry relative="1" as="geometry">
            <Array as="points">
              <mxPoint x="-80" y="180" />
              <mxPoint x="-80" y="180" />
            </Array>
          </mxGeometry>
        </mxCell>
        <mxCell id="65VxoNCgQf6FpiBaKDHk-81" value="Mobile Device" style="rounded=0;whiteSpace=wrap;html=1;fillColor=#f5f5f5;fontColor=#333333;strokeColor=#666666;rotation=0;" parent="1" vertex="1">
          <mxGeometry x="-140" y="190" width="120" height="40" as="geometry" />
        </mxCell>
        <mxCell id="65VxoNCgQf6FpiBaKDHk-92" style="edgeStyle=orthogonalEdgeStyle;shape=connector;rounded=0;orthogonalLoop=1;jettySize=auto;html=1;exitX=1;exitY=0.5;exitDx=0;exitDy=0;entryX=0.276;entryY=0.048;entryDx=0;entryDy=0;entryPerimeter=0;labelBackgroundColor=default;strokeColor=default;strokeWidth=1;fontFamily=Helvetica;fontSize=11;fontColor=default;startArrow=classicThin;startFill=1;endArrow=classicThin;endFill=1;dashed=1;jumpStyle=line;jumpSize=12;" parent="1" source="65VxoNCgQf6FpiBaKDHk-87" target="65VxoNCgQf6FpiBaKDHk-54" edge="1">
          <mxGeometry relative="1" as="geometry" />
        </mxCell>
        <mxCell id="65VxoNCgQf6FpiBaKDHk-87" value="Home&lt;br&gt;App" style="ellipse;whiteSpace=wrap;html=1;aspect=fixed;fontFamily=Helvetica;fontSize=11;fillColor=#f5f5f5;strokeColor=#666666;fontColor=#333333;" parent="1" vertex="1">
          <mxGeometry x="-105" y="110" width="50" height="50" as="geometry" />
        </mxCell>
        <mxCell id="8-u3lzmufBc6lLuJ5G9J-1" value="Cloud Print Service" style="rounded=1;whiteSpace=wrap;html=1;rotation=0;fillStyle=auto;fillColor=#f5f5f5;fontColor=#333333;strokeColor=#666666;arcSize=40;" parent="1" vertex="1">
          <mxGeometry x="-140" y="320" width="120" height="40" as="geometry" />
        </mxCell>
        <mxCell id="8-u3lzmufBc6lLuJ5G9J-2" value="Weather API" style="rounded=1;whiteSpace=wrap;html=1;rotation=0;fillStyle=auto;fillColor=#f5f5f5;fontColor=#333333;strokeColor=#666666;arcSize=40;" parent="1" vertex="1">
          <mxGeometry x="-140" y="372.5" width="120" height="40" as="geometry" />
        </mxCell>
        <mxCell id="8-u3lzmufBc6lLuJ5G9J-3" value="Notification Service" style="rounded=1;whiteSpace=wrap;html=1;rotation=0;fillStyle=auto;fillColor=#f5f5f5;fontColor=#333333;strokeColor=#666666;arcSize=40;" parent="1" vertex="1">
          <mxGeometry x="-140" y="425" width="120" height="40" as="geometry" />
        </mxCell>
        <mxCell id="mYAwr8ToY7tBYVngPbIs-4" value="" style="group;movable=0;resizable=0;rotatable=0;deletable=0;editable=0;locked=1;connectable=0;" vertex="1" connectable="0" parent="1">
          <mxGeometry x="-150" y="495" width="860" height="70" as="geometry" />
        </mxCell>
        <mxCell id="Bv7neDrT7dDYSbwKj_jJ-6" value="" style="rounded=0;whiteSpace=wrap;html=1;dashed=1;movable=1;resizable=1;rotatable=1;deletable=1;editable=1;locked=0;connectable=1;dashPattern=1 4;" parent="mYAwr8ToY7tBYVngPbIs-4" vertex="1">
          <mxGeometry x="530" y="45" width="40" height="20" as="geometry" />
        </mxCell>
        <mxCell id="Bv7neDrT7dDYSbwKj_jJ-1" style="edgeStyle=orthogonalEdgeStyle;shape=connector;rounded=0;orthogonalLoop=1;jettySize=auto;html=1;exitX=1;exitY=0.5;exitDx=0;exitDy=0;dashed=1;labelBackgroundColor=default;strokeColor=default;strokeWidth=1;fontFamily=Helvetica;fontSize=11;fontColor=default;startArrow=classicThin;startFill=1;endArrow=classicThin;endFill=1;" parent="mYAwr8ToY7tBYVngPbIs-4" edge="1">
          <mxGeometry relative="1" as="geometry">
            <Array as="points">
              <mxPoint x="192.5" y="57" />
              <mxPoint x="192.5" y="57" />
            </Array>
            <mxPoint x="172.5" y="57" as="sourcePoint" />
            <mxPoint x="212.5" y="57" as="targetPoint" />
          </mxGeometry>
        </mxCell>
        <mxCell id="Bv7neDrT7dDYSbwKj_jJ-2" value="= Software Links" style="text;html=1;strokeColor=none;fillColor=none;align=left;verticalAlign=middle;whiteSpace=wrap;rounded=0;fontStyle=2;movable=1;resizable=1;rotatable=1;deletable=1;editable=1;locked=0;connectable=1;" parent="mYAwr8ToY7tBYVngPbIs-4" vertex="1">
          <mxGeometry x="217.5" y="40" width="105" height="30" as="geometry" />
        </mxCell>
        <mxCell id="Bv7neDrT7dDYSbwKj_jJ-3" style="edgeStyle=orthogonalEdgeStyle;shape=connector;rounded=0;orthogonalLoop=1;jettySize=auto;html=1;exitX=1;exitY=0.5;exitDx=0;exitDy=0;labelBackgroundColor=default;strokeColor=default;strokeWidth=1;fontFamily=Helvetica;fontSize=11;fontColor=default;startArrow=classicThin;startFill=1;endArrow=classicThin;endFill=1;" parent="mYAwr8ToY7tBYVngPbIs-4" edge="1">
          <mxGeometry relative="1" as="geometry">
            <Array as="points">
              <mxPoint x="362.5" y="57" />
              <mxPoint x="362.5" y="57" />
            </Array>
            <mxPoint x="342.5" y="57" as="sourcePoint" />
            <mxPoint x="382.5" y="57" as="targetPoint" />
          </mxGeometry>
        </mxCell>
        <mxCell id="Bv7neDrT7dDYSbwKj_jJ-4" value="= Physical&amp;nbsp;Links" style="text;html=1;strokeColor=none;fillColor=none;align=left;verticalAlign=middle;whiteSpace=wrap;rounded=0;fontStyle=2;movable=1;resizable=1;rotatable=1;deletable=1;editable=1;locked=0;connectable=1;" parent="mYAwr8ToY7tBYVngPbIs-4" vertex="1">
          <mxGeometry x="390" y="40" width="105" height="30" as="geometry" />
        </mxCell>
        <mxCell id="nFdYhcScDuUiBtY3z01P-1" value="" style="rounded=0;whiteSpace=wrap;html=1;fillColor=#f5f5f5;fontColor=#333333;strokeColor=#666666;" parent="mYAwr8ToY7tBYVngPbIs-4" vertex="1">
          <mxGeometry y="5" width="40" height="20" as="geometry" />
        </mxCell>
        <mxCell id="nFdYhcScDuUiBtY3z01P-2" value="" style="ellipse;whiteSpace=wrap;html=1;aspect=fixed;fontFamily=Helvetica;fontSize=11;fillColor=#f5f5f5;strokeColor=#666666;fontColor=#333333;" parent="mYAwr8ToY7tBYVngPbIs-4" vertex="1">
          <mxGeometry x="190" y="5" width="20" height="20" as="geometry" />
        </mxCell>
        <mxCell id="nFdYhcScDuUiBtY3z01P-3" value="" style="ellipse;whiteSpace=wrap;html=1;aspect=fixed;fontFamily=Helvetica;fontSize=11;fillColor=#f8cecc;strokeColor=#b85450;" parent="mYAwr8ToY7tBYVngPbIs-4" vertex="1">
          <mxGeometry x="360" y="5" width="20" height="20" as="geometry" />
        </mxCell>
        <mxCell id="nFdYhcScDuUiBtY3z01P-6" value="" style="rounded=1;whiteSpace=wrap;html=1;rotation=0;fillStyle=auto;fillColor=#f5f5f5;fontColor=#333333;strokeColor=#666666;arcSize=40;" parent="mYAwr8ToY7tBYVngPbIs-4" vertex="1">
          <mxGeometry x="530" y="5" width="40" height="20" as="geometry" />
        </mxCell>
        <mxCell id="nFdYhcScDuUiBtY3z01P-7" value="= Infra-node" style="text;html=1;strokeColor=none;fillColor=none;align=left;verticalAlign=middle;whiteSpace=wrap;rounded=0;fontStyle=2;movable=1;resizable=1;rotatable=1;deletable=1;editable=1;locked=0;connectable=1;" parent="mYAwr8ToY7tBYVngPbIs-4" vertex="1">
          <mxGeometry x="45" width="105" height="30" as="geometry" />
        </mxCell>
        <mxCell id="nFdYhcScDuUiBtY3z01P-8" value="= Software asset" style="text;html=1;strokeColor=none;fillColor=none;align=left;verticalAlign=middle;whiteSpace=wrap;rounded=0;fontStyle=2" parent="mYAwr8ToY7tBYVngPbIs-4" vertex="1">
          <mxGeometry x="217.5" width="105" height="30" as="geometry" />
        </mxCell>
        <mxCell id="nFdYhcScDuUiBtY3z01P-9" value="= Critical Software" style="text;html=1;strokeColor=none;fillColor=none;align=left;verticalAlign=middle;whiteSpace=wrap;rounded=0;fontStyle=2;movable=1;resizable=1;rotatable=1;deletable=1;editable=1;locked=0;connectable=1;" parent="mYAwr8ToY7tBYVngPbIs-4" vertex="1">
          <mxGeometry x="390" width="105" height="30" as="geometry" />
        </mxCell>
        <mxCell id="nFdYhcScDuUiBtY3z01P-10" value="= Infra-node + software (simplified for illustration" style="text;html=1;strokeColor=none;fillColor=none;align=left;verticalAlign=middle;whiteSpace=wrap;rounded=0;fontStyle=2" parent="mYAwr8ToY7tBYVngPbIs-4" vertex="1">
          <mxGeometry x="575" width="285" height="30" as="geometry" />
        </mxCell>
        <mxCell id="Bv7neDrT7dDYSbwKj_jJ-7" value="= Named group (Only for visualizing)" style="text;html=1;strokeColor=none;fillColor=none;align=left;verticalAlign=middle;whiteSpace=wrap;rounded=0;fontStyle=2;movable=1;resizable=1;rotatable=1;deletable=1;editable=1;locked=0;connectable=1;" parent="mYAwr8ToY7tBYVngPbIs-4" vertex="1">
          <mxGeometry x="574" y="40" width="286" height="30" as="geometry" />
        </mxCell>
        <mxCell id="mYAwr8ToY7tBYVngPbIs-2" value="&lt;span style=&quot;font-style: normal;&quot;&gt;&lt;u&gt;Node&lt;/u&gt;&lt;/span&gt; = Node with agent" style="text;html=1;strokeColor=none;fillColor=none;align=left;verticalAlign=middle;whiteSpace=wrap;rounded=0;fontStyle=2;movable=1;resizable=1;rotatable=1;deletable=1;editable=1;locked=0;connectable=1;" vertex="1" parent="mYAwr8ToY7tBYVngPbIs-4">
          <mxGeometry x="13" y="40" width="152.5" height="30" as="geometry" />
        </mxCell>
      </root>
    </mxGraphModel>
  </diagram>
</mxfile>
